<?xml version="1.0" encoding="UTF-8"?>
<!DOCTYPE svg PUBLIC "-//W3C//DTD SVG 1.1//EN" "http://www.w3.org/Graphics/SVG/1.1/DTD/svg11.dtd">
<!-- Creator: CorelDRAW 2018 (64 Bit) -->
<svg xmlns="http://www.w3.org/2000/svg" xml:space="preserve" width="77px" height="25px" version="1.1" style="shape-rendering:geometricPrecision; text-rendering:geometricPrecision; image-rendering:optimizeQuality; fill-rule:evenodd; clip-rule:evenodd"
viewBox="0 0 11.93 3.828"
 xmlns:xlink="http://www.w3.org/1999/xlink">
 <defs>
  <style type="text/css">
   <![CDATA[
    .str0 {stroke:#E6E6E6;stroke-width:0.088;stroke-miterlimit:22.9256}
    .fil0 {fill:white}
    .fil1 {fill:black;fill-rule:nonzero}
    .fil3 {fill:#27509B;fill-rule:nonzero}
    .fil2 {fill:#FCE500;fill-rule:nonzero}
   ]]>
  </style>
 </defs>
 <g id="Camada_x0020_1">
  <metadata id="CorelCorpID_0Corel-Layer"/>
  <g id="_2063859017616">
   <rect class="fil0 str0" x="0.044" y="0.044" width="11.842" height="3.739"/>
   <g>
    <path class="fil1" d="M3.227 2.608c0,-0.002 -0.001,-0.003 -0.003,-0.004 0.012,-0.086 -0.008,-0.171 -0.056,-0.244 -0.052,-0.078 -0.132,-0.131 -0.225,-0.149 -0.009,-0.002 -0.019,-0.004 -0.028,-0.005 -0.002,0 -0.003,0 -0.004,0 -0.095,-0.092 -0.195,-0.139 -0.23,-0.154 0.001,-0.004 0.002,-0.009 0.003,-0.014 0.001,0 0.003,-0.001 0.004,-0.001 0.101,-0.044 0.161,-0.118 0.173,-0.215 0.01,-0.076 -0.011,-0.161 -0.054,-0.22 0,-0.001 0,-0.002 0,-0.003 0.011,-0.104 -0.005,-0.194 -0.046,-0.268 -0.033,-0.061 -0.084,-0.109 -0.143,-0.136 0,0 0,-0.001 0,-0.001 -0.017,-0.055 -0.088,-0.098 -0.163,-0.095 -0.06,0.001 -0.125,0.029 -0.149,0.075 -0.091,0.033 -0.232,0.117 -0.275,0.331 -0.062,0.047 -0.104,0.117 -0.114,0.193 -0.011,0.084 0.018,0.168 0.075,0.232 -0.058,0 -0.151,0.005 -0.261,0.027 -0.001,0 -0.002,0.001 -0.003,0.001 -0.085,-0.06 -0.195,-0.083 -0.292,-0.057 -0.004,0.001 -0.008,0.003 -0.011,0.005 -0.027,-0.008 -0.057,-0.014 -0.089,-0.018 -0.002,0 -0.004,-0.001 -0.006,0 -0.014,-0.046 -0.039,-0.088 -0.072,-0.121 -0.002,-0.002 -0.006,-0.005 -0.006,-0.005 0,0 0,0 0,0 -0.005,-0.033 -0.015,-0.07 -0.019,-0.083 -0.009,-0.033 -0.024,-0.069 -0.067,-0.113 -0.028,-0.027 -0.057,-0.044 -0.078,-0.053 0.004,-0.011 0.007,-0.021 0.008,-0.026 0.001,-0.002 0.001,-0.004 0.001,-0.007 0,-0.001 0.011,-0.104 0.023,-0.165 0,-0.001 0.001,-0.002 0.001,-0.003 0.033,-0.21 0.034,-0.213 0.034,-0.215 0,-0.001 0,-0.001 0,-0.002 0.001,-0.019 -0.005,-0.037 -0.018,-0.051 -0.017,-0.018 -0.041,-0.028 -0.068,-0.028 -0.038,0 -0.071,0.019 -0.092,0.053 -0.013,0.019 -0.022,0.043 -0.028,0.063 -0.035,-0.068 -0.081,-0.157 -0.114,-0.222 0,-0.001 -0.001,-0.002 -0.002,-0.003 -0.011,-0.019 -0.037,-0.042 -0.074,-0.042 -0.011,0 -0.021,0.002 -0.032,0.006 -0.016,-0.013 -0.036,-0.021 -0.057,-0.021 -0.01,0 -0.021,0.002 -0.032,0.006 -0.037,0.012 -0.058,0.045 -0.058,0.084 -0.029,0.011 -0.049,0.034 -0.055,0.064 -0.003,0.02 0.001,0.037 0.003,0.046 0,0.001 0,0.003 0.001,0.006 -0.001,0.001 -0.002,0.002 -0.002,0.004 -0.021,0.032 -0.032,0.092 0.046,0.29 0,0 0.001,0.001 0.001,0.002 0.001,0.003 0.003,0.007 0.006,0.013 0.014,0.034 0.043,0.103 0.078,0.165 0.019,0.035 0.038,0.063 0.057,0.084 -0.015,0.021 -0.035,0.055 -0.045,0.1 -0.011,0.045 -0.006,0.104 0.013,0.162 0.008,0.024 0.019,0.046 0.031,0.067 0,0 0,0 0,0 0,0 0,0 0,0.001 -0.001,0.001 -0.001,0.003 -0.001,0.005 -0.015,0.113 0.034,0.223 0.129,0.294 0.015,0.011 0.031,0.021 0.047,0.03 0.014,0.043 0.043,0.082 0.084,0.115 0.027,0.021 0.06,0.039 0.093,0.051 0.001,0.001 0.001,0.001 0.001,0.001 0.036,0.051 0.091,0.088 0.159,0.107 0.017,0.005 0.034,0.009 0.052,0.011 0.001,0.001 0.002,0.002 0.003,0.003 0.033,0.032 0.076,0.056 0.126,0.07 -0.009,0.066 -0.001,0.116 0.013,0.153l1.723 0c0.024,-0.028 0.043,-0.06 0.058,-0.094 0.011,0.03 0.016,0.062 0.016,0.094l0.059 0c0.001,-0.061 -0.015,-0.122 -0.049,-0.176zm-1.762 0.035c0.013,0.001 0.025,0.002 0.037,0.002 0.123,0 0.242,-0.065 0.318,-0.176 0.065,0.029 0.142,0.056 0.195,0.072 0.15,0.044 0.321,0.079 0.481,0.1 0.102,0.013 0.195,0.019 0.276,0.019 0.06,0 0.114,-0.003 0.161,-0.01 0.003,-0.001 0.015,-0.003 0.031,-0.008 0.037,0.039 0.044,0.095 0.042,0.142l-1.521 0c-0.014,-0.029 -0.027,-0.074 -0.02,-0.141zm-0.887 -1.554c0,0 0.001,-0.001 0.002,-0.001 0.002,-0.002 0.005,-0.004 0.007,-0.005 0.001,0 0.002,0 0.003,0 0.003,0 0.006,0 0.008,0 0.002,0 0.003,0 0.005,0.001 0.017,0.006 0.03,0.028 0.034,0.059 0.012,0.087 0.053,0.144 0.054,0.147 0.003,0.003 0.007,0.005 0.011,0.005 0.002,0 0.005,-0.001 0.007,-0.002 0.006,-0.004 0.008,-0.013 0.003,-0.018 0,-0.001 -0.038,-0.055 -0.049,-0.136 -0.006,-0.041 -0.024,-0.069 -0.051,-0.079 -0.006,-0.003 -0.013,-0.004 -0.02,-0.003 -0.003,-0.008 -0.006,-0.016 -0.007,-0.02 -0.003,-0.012 -0.008,-0.034 0.017,-0.042 0.001,-0.001 0.003,-0.001 0.005,-0.001 0,0 0.001,0 0.002,0 0.018,-0.003 0.041,0.005 0.065,0.089 0.022,0.077 0.071,0.152 0.073,0.155 0.002,0.004 0.006,0.006 0.011,0.006 0.002,0 0.005,-0.001 0.007,-0.002 0.006,-0.004 0.007,-0.012 0.003,-0.018 0,-0.001 -0.049,-0.075 -0.069,-0.148 -0.01,-0.036 -0.024,-0.075 -0.049,-0.095 -0.003,-0.009 -0.007,-0.019 -0.008,-0.022 -0.004,-0.013 -0.009,-0.04 0.015,-0.048 0.005,-0.001 0.009,-0.002 0.013,-0.002 0.019,0 0.028,0.016 0.033,0.028 0.001,0.002 0.001,0.004 0.002,0.005l0.107 0.255c0,0.002 0.002,0.003 0.003,0.004 0.003,0.003 0.008,0.004 0.012,0.003 0.006,-0.003 0.01,-0.01 0.007,-0.016l-0.103 -0.247c0.001,-0.005 0.005,-0.009 0.011,-0.013 0.007,-0.003 0.012,-0.004 0.017,-0.004 0.016,0 0.024,0.013 0.024,0.013 0,0 0.137,0.27 0.163,0.317 -0.01,0.017 -0.019,0.034 -0.02,0.039 -0.002,0.007 0.003,0.013 0.006,0.006 0.008,-0.011 0.019,-0.025 0.029,-0.035 0,-0.001 0,-0.001 0,-0.001 0,0 0,0 0,0 0,0 0.001,-0.001 0.001,-0.001 0.006,-0.012 0.027,-0.066 0.035,-0.082 0.005,-0.025 0.016,-0.058 0.03,-0.08 0.011,-0.019 0.028,-0.025 0.042,-0.025 0.016,0 0.028,0.008 0.027,0.016 0,0.003 -0.033,0.212 -0.033,0.212 -0.009,0.044 -0.017,0.106 -0.021,0.142 0,0.009 -0.001,0.018 -0.003,0.027 0,0.001 0,0.002 0,0.002 0,0 -0.001,0.002 -0.002,0.005 -0.007,0.032 -0.019,0.057 -0.019,0.057l0.011 0.049c0,0 0,0 0,0 0.004,0.021 0.009,0.044 0.011,0.051 0.008,0.028 -0.002,0.044 0.003,0.05 0.007,0.008 0.025,-0.03 0.029,-0.049 0.004,-0.016 -0.002,-0.047 -0.007,-0.069 0.015,0.007 0.037,0.019 0.058,0.04 0.036,0.037 0.046,0.065 0.053,0.088 0.007,0.023 0.019,0.073 0.019,0.099 0.001,0.027 -0.008,0.169 -0.176,0.217 0,0 -0.026,0.007 -0.063,0.007 -0.037,0 -0.086,-0.008 -0.131,-0.04 -0.082,-0.058 -0.113,-0.184 -0.097,-0.251 0.007,-0.032 0.021,-0.057 0.032,-0.074 0.008,0.005 0.016,0.009 0.024,0.011l0.005 0.023c0,0.003 0.013,0.067 0.038,0.087 0.015,0.011 0.039,0.012 0.046,0.012 0.007,0 0.025,-0.001 0.028,-0.008 0,-0.002 0.001,-0.005 -0.002,-0.008 -0.001,-0.002 -0.004,-0.003 -0.008,-0.005 -0.012,-0.006 -0.034,-0.019 -0.039,-0.04 -0.003,-0.013 -0.013,-0.056 -0.019,-0.082 0.025,-0.02 0.028,-0.041 -0.005,-0.035 -0.02,0.005 -0.038,-0.005 -0.052,-0.016 -0.066,-0.057 -0.135,-0.234 -0.148,-0.265 -0.056,-0.142 -0.068,-0.217 -0.05,-0.239zm0.671 0.763c0,0 0,0 0,0 0.032,0.053 0.043,0.12 0.031,0.188 -0.017,0.087 -0.071,0.158 -0.145,0.19 -0.084,0.036 -0.18,0.023 -0.258,-0.035 -0.061,-0.046 -0.099,-0.112 -0.106,-0.182 0,0 0,0 0,-0.001 0.006,0.006 0.012,0.011 0.019,0.015 0.047,0.034 0.104,0.052 0.166,0.052 0.042,0 0.073,-0.008 0.079,-0.01 0.109,-0.031 0.163,-0.096 0.188,-0.146 0.014,-0.025 0.021,-0.05 0.026,-0.071zm0.089 0.199c0.005,-0.024 0.007,-0.049 0.006,-0.072 0.063,0.06 0.088,0.154 0.059,0.242 -0.038,0.121 -0.167,0.197 -0.287,0.171 -0.05,-0.011 -0.109,-0.043 -0.145,-0.089 0.022,0.004 0.044,0.007 0.066,0.007 0.041,0 0.083,-0.009 0.122,-0.026 0.092,-0.04 0.159,-0.127 0.179,-0.233zm0.199 -0.004c0.044,0.055 0.064,0.128 0.057,0.202 -0.012,0.117 -0.09,0.214 -0.194,0.243 -0.088,0.024 -0.173,0.003 -0.231,-0.035 0.128,-0.003 0.25,-0.09 0.291,-0.218 0.021,-0.064 0.019,-0.134 -0.004,-0.196 -0.01,-0.028 -0.025,-0.055 -0.044,-0.079 0.054,0.017 0.095,0.045 0.125,0.083zm0.207 0.005c0.09,0.102 0.106,0.257 0.036,0.37 -0.078,0.125 -0.218,0.188 -0.348,0.154 -0.019,-0.004 -0.037,-0.011 -0.053,-0.019 0.012,-0.002 0.024,-0.004 0.036,-0.008 0.128,-0.035 0.224,-0.153 0.238,-0.294 0.009,-0.089 -0.016,-0.178 -0.069,-0.245 -0.019,-0.023 -0.04,-0.043 -0.064,-0.06 0.082,0 0.167,0.037 0.224,0.102zm1.374 0.342c0.044,0.065 0.06,0.143 0.044,0.22 -0.012,0.064 -0.047,0.123 -0.096,0.165 0.001,-0.054 -0.008,-0.116 -0.048,-0.166 0.016,-0.012 0.03,-0.029 0.04,-0.051 0.03,-0.067 0.005,-0.159 -0.074,-0.272 0,0 0,0 0,-0.001 -0.002,-0.002 -0.003,-0.004 -0.005,-0.006 0.056,0.021 0.105,0.059 0.139,0.111zm-1.11 -0.404c0,0 0.027,0.002 0.043,0.008 0.028,0.01 0.082,0.062 0.112,0.067 0.005,0 0.018,-0.003 0.004,-0.013 -0.005,-0.003 -0.039,-0.033 -0.026,-0.049 0,0 0,0 0.001,-0.001 0.004,-0.006 0.01,-0.007 0.016,-0.006 0.043,0.01 0.078,0.017 0.09,0.018 0.008,0.001 0.013,0.001 0.017,-0.001 0.003,-0.003 0,-0.005 -0.008,-0.007 -0.066,-0.018 -0.138,-0.046 -0.189,-0.084 -0.068,-0.052 -0.105,-0.135 -0.094,-0.217 0.008,-0.06 0.039,-0.114 0.089,-0.152 0.019,-0.014 0.05,-0.025 0.059,-0.028 0.024,-0.009 -0.015,-0.015 -0.018,-0.015 -0.01,-0.002 -0.01,-0.012 -0.002,-0.044 0.045,-0.146 0.146,-0.21 0.23,-0.239 0.014,-0.004 0.037,-0.011 0.052,-0.013 0.023,-0.004 0.015,-0.014 -0.012,-0.017 0,0 -0.009,-0.001 -0.004,-0.006 0,-0.001 0.005,-0.007 0.013,-0.012 0.018,-0.012 0.046,-0.021 0.075,-0.022 0.054,-0.001 0.1,0.029 0.106,0.057 0,0 0.002,0.005 -0.005,0.005 -0.01,0.001 -0.018,0.005 -0.004,0.012 0.003,0.002 0.018,0.006 0.038,0.015 0.001,0.001 0.002,0.002 0.003,0.002 0.04,0.019 0.166,0.096 0.157,0.312 0,0 0,0 0,0 0,0.007 -0.001,0.013 -0.001,0.02 -0.001,0.006 -0.001,0.012 -0.002,0.018 -0.012,-0.002 -0.017,0.003 -0.009,0.012 0.006,0.006 0.022,0.024 0.031,0.039 0.028,0.047 0.042,0.109 0.034,0.166 -0.01,0.077 -0.057,0.124 -0.105,0.152 -0.022,0.013 -0.071,0.037 -0.133,0.051 -0.013,0.003 -0.007,0.019 0.052,0.019 0.004,0 0.015,0.001 0.018,0.006 0.007,0.013 -0.005,0.038 -0.03,0.053 -0.022,0.013 -0.005,0.015 0.026,0.006 0.009,-0.001 0.032,0.008 0.035,0.01 0.05,0.022 0.175,0.086 0.269,0.212 0.065,0.094 0.088,0.167 0.068,0.213 -0.02,0.045 -0.078,0.053 -0.079,0.053 0,0.001 -0.001,0.001 -0.001,0.001 -0.227,0.035 -0.62,-0.027 -0.892,-0.107 -0.048,-0.015 -0.121,-0.04 -0.182,-0.067 0.06,-0.13 0.037,-0.294 -0.062,-0.405 -0.001,-0.001 -0.002,-0.003 -0.004,-0.004 0.097,-0.016 0.178,-0.019 0.224,-0.018z"/>
    <polygon class="fil2" points="9.744,2.784 0.975,2.784 0.905,2.978 9.673,2.978 "/>
    <path class="fil3" d="M9.286 1.624l-0.365 0 -0.285 0.774 0.732 0 0.095 -0.258 -0.367 0 0.19 -0.516zm2.132 0l0 0 -0.313 0 -0.195 0.531c0.002,-0.054 0.013,-0.265 0.019,-0.387 0.003,-0.05 -0.008,-0.088 -0.032,-0.113 -0.029,-0.031 -0.067,-0.031 -0.068,-0.031l-0.435 0 -0.285 0.774 0.316 0 0.202 -0.548 -0.024 0.548 0.53 0 0.285 -0.774zm-3.207 0.202l0.428 0 0.075 -0.202 -0.781 0 -0.285 0.774 0.79 0 0.077 -0.209 -0.437 0 0.032 -0.086 0.407 0 0.07 -0.191 -0.407 0 0.031 -0.086zm1.585 -0.202l-0.285 0.773 0.375 0 0.285 -0.773 -0.375 0zm-5.303 0l-0.273 0.415c0,0 0.017,-0.217 0.021,-0.269 0.004,-0.04 -0.001,-0.146 -0.098,-0.146l-0.435 0 -0.284 0.773 0.339 0 0.207 -0.559 -0.044 0.559 0.302 0 0.37 -0.549 -0.202 0.549 0.342 0 0.284 -0.773 -0.529 0zm0.746 0l-0.285 0.773 0.375 0 0.284 -0.773 -0.374 0zm2.126 0l-0.104 0.278 -0.188 0 0.103 -0.278 -0.358 0 -0.284 0.774 0.356 0 0.097 -0.262 0.189 0 -0.097 0.262 0.357 0 0.285 -0.774 -0.356 0zm-1.23 0.007c-0.227,0.046 -0.535,0.213 -0.532,0.517 0.002,0.176 0.214,0.273 0.457,0.267 0.137,-0.004 0.267,-0.029 0.283,-0.032l0.09 -0.234c-0.119,0.019 -0.234,0.047 -0.324,0.011 -0.162,-0.065 -0.062,-0.233 0.053,-0.286 0.05,-0.023 0.119,-0.045 0.201,-0.043 0.035,0.001 0.118,0.002 0.151,0.076l0.113 -0.272c-0.195,-0.048 -0.391,-0.025 -0.492,-0.004z"/>
    <path class="fil1" d="M2.672 1.576c-0.002,0.009 -0.005,0.019 -0.009,0.028 -0.008,0.019 -0.019,0.034 -0.03,0.043 -0.005,0.004 -0.011,0.006 -0.017,0.007 0.019,-0.012 0.034,-0.038 0.037,-0.071 0.004,-0.044 -0.017,-0.083 -0.046,-0.085 -0.015,-0.002 -0.028,0.006 -0.039,0.018 0.011,0 0.02,0.011 0.02,0.025 0.001,0.015 -0.008,0.027 -0.018,0.027 -0.009,0.001 -0.017,-0.006 -0.02,-0.017 -0.002,0.007 -0.004,0.015 -0.004,0.023 -0.003,0.03 0.005,0.057 0.02,0.072 -0.009,-0.005 -0.017,-0.018 -0.022,-0.034 -0.003,-0.008 -0.004,-0.016 -0.005,-0.024 -0.002,-0.02 -0.002,-0.04 0.008,-0.068 0.001,-0.001 0.001,-0.002 0.001,-0.004 0.011,-0.027 0.031,-0.057 0.076,-0.05 0.058,0.01 0.052,0.086 0.048,0.11zm0.014 -0.084c-0.005,-0.019 -0.015,-0.036 -0.032,-0.046 -0.014,-0.008 -0.031,-0.012 -0.047,-0.01 -0.004,0 -0.009,0.001 -0.013,0.002 -0.04,0.013 -0.056,0.049 -0.068,0.098 -0.013,0.054 0.005,0.118 0.04,0.128 0.008,0.003 0.022,0.005 0.022,0.005 0.009,0.002 0.018,0.003 0.026,0.002 0.01,-0.001 0.019,-0.004 0.028,-0.011 0.017,-0.012 0.029,-0.031 0.036,-0.05 0.008,-0.019 0.012,-0.039 0.013,-0.059 0.001,-0.02 0,-0.04 -0.005,-0.059zm-0.41 0.212c-0.001,-0.005 -0.008,-0.006 -0.01,-0.005 -0.005,-0.001 -0.013,0.001 -0.019,0.003 -0.015,0.006 -0.027,0.024 -0.026,0.035 0,0.002 0,0.004 0.002,0.005 0,0.001 0.002,0.002 0.005,0.002 0,0 0,0 0,0l0 0 0 0c0.003,0 0.005,-0.002 0.005,-0.005 0.001,-0.003 0.002,-0.008 0.006,-0.012 0.004,-0.004 0.011,-0.011 0.03,-0.015 0.004,-0.001 0.009,-0.003 0.007,-0.008zm0.238 0.123c-0.017,0.005 -0.035,0.006 -0.052,0.004 -0.017,-0.001 -0.034,-0.005 -0.05,-0.012 -0.017,-0.009 -0.032,-0.021 -0.045,-0.034 0.062,0.015 0.128,0.023 0.191,0.017 -0.013,0.01 -0.028,0.019 -0.044,0.025zm0.135 -0.083c-0.006,-0.001 -0.008,0.004 -0.006,0.007 0.001,0 0.002,0.001 0.003,0.002 -0.002,0.001 -0.005,0.003 -0.007,0.004 -0.014,0.007 -0.029,0.011 -0.045,0.015 -0.038,0.008 -0.077,0.009 -0.117,0.006 -0.063,-0.005 -0.127,-0.019 -0.186,-0.044 -0.006,-0.002 -0.011,-0.005 -0.016,-0.007 -0.003,-0.001 -0.005,-0.003 -0.008,-0.004l0 0c-0.008,-0.003 -0.017,0.003 -0.017,0.011 0,0.007 0.004,0.011 0.009,0.014 0.016,0.008 0.033,0.014 0.05,0.02 0.015,0.007 0.026,0.02 0.037,0.031 0.013,0.014 0.027,0.027 0.044,0.036 0.032,0.019 0.073,0.025 0.108,0.019 0.019,-0.003 0.037,-0.009 0.053,-0.019 0.012,-0.008 0.022,-0.016 0.033,-0.025 0.006,-0.005 0.013,-0.01 0.02,-0.014 0.004,-0.003 0.033,-0.014 0.049,-0.023 0,0.005 -0.001,0.01 0.003,0.011 0.004,0 0.008,-0.007 0.009,-0.013 0.002,-0.007 0,-0.013 -0.001,-0.017 -0.002,-0.004 -0.009,-0.01 -0.015,-0.01zm-0.353 -0.218c0.003,-0.024 0.017,-0.1 0.077,-0.094 0.046,0.005 0.059,0.039 0.062,0.069 0,0.001 0,0.002 0,0.004 0.003,0.029 -0.002,0.049 -0.01,0.068 -0.003,0.008 -0.006,0.015 -0.01,0.021 -0.012,0.018 -0.025,0.029 -0.037,0.03 -0.001,0 -0.002,0 -0.003,0 0.02,-0.011 0.036,-0.039 0.039,-0.072 0.004,-0.045 -0.017,-0.083 -0.047,-0.086 -0.015,-0.001 -0.029,0.006 -0.04,0.019 0.011,0 0.02,0.011 0.021,0.025 0,0.014 -0.008,0.026 -0.019,0.027 -0.009,0 -0.017,-0.007 -0.02,-0.017 -0.002,0.007 -0.004,0.015 -0.005,0.023 -0.002,0.027 0.005,0.052 0.018,0.068 -0.002,-0.002 -0.004,-0.003 -0.005,-0.005 -0.01,-0.012 -0.017,-0.03 -0.02,-0.051 -0.001,-0.009 -0.001,-0.019 -0.001,-0.029zm0.007 0.09c0.008,0.009 0.016,0.014 0.025,0.018 0.009,0.003 0.018,0.004 0.027,0.005 0,0 0.015,0.002 0.024,0.001 0.037,-0.001 0.072,-0.058 0.073,-0.114 0.001,-0.051 -0.005,-0.09 -0.042,-0.113 -0.004,-0.003 -0.008,-0.005 -0.012,-0.006 -0.016,-0.006 -0.034,-0.007 -0.05,-0.002 -0.019,0.005 -0.034,0.018 -0.044,0.035 -0.01,0.018 -0.017,0.037 -0.021,0.057 -0.004,0.02 -0.005,0.04 -0.002,0.06 0.002,0.021 0.009,0.043 0.022,0.059z"/>
   </g>
  </g>
 </g>
</svg>
