<?xml version="1.0" encoding="UTF-8"?>
<svg xmlns="http://www.w3.org/2000/svg" xmlns:xlink="http://www.w3.org/1999/xlink" width="76px" height="24px" viewBox="0 0 76 24" version="1.1">
<g id="surface1">
<rect x="0" y="0" width="76" height="24" style="fill:rgb(0%,0%,0%);fill-opacity:1;stroke:none;"/>
<path style=" stroke:none;fill-rule:evenodd;fill:rgb(100%,100%,100%);fill-opacity:1;" d="M 0.601562 15.898438 C 0.5 16.199219 0.601562 16.398438 0.898438 16.398438 L 4.398438 16.398438 C 4.699219 16.398438 5 16.199219 5.101562 15.898438 L 7.800781 10.300781 C 7.800781 10.101562 7.800781 10 7.699219 10 L 5.601562 9.601562 C 5.601562 9.601562 5.398438 9.601562 5.300781 9.601562 L 3.898438 9.601562 C 3.800781 9.601562 3.699219 9.601562 3.601562 9.800781 Z M 0.601562 15.898438 "/>
<path style=" stroke:none;fill-rule:evenodd;fill:rgb(100%,60.000002%,20%);fill-opacity:1;" d="M 8.5 7.601562 L 5 7.601562 C 4.699219 7.601562 4.398438 7.800781 4.300781 8.101562 L 3.800781 9.101562 L 7.898438 9.101562 C 8.101562 9.101562 8.300781 8.898438 8.398438 8.699219 L 8.699219 8 C 8.800781 7.699219 8.699219 7.5 8.398438 7.5 "/>
<path style=" stroke:none;fill-rule:evenodd;fill:rgb(100%,100%,100%);fill-opacity:1;" d="M 25 15.898438 C 24.898438 16.199219 25 16.398438 25.300781 16.398438 L 28.800781 16.398438 C 29.101562 16.398438 29.398438 16.199219 29.5 15.898438 L 32.199219 10.300781 C 32.199219 10.101562 32.199219 10 32.101562 10 L 30 9.601562 C 30 9.601562 29.800781 9.601562 29.699219 9.601562 L 28.300781 9.601562 C 28.199219 9.601562 28.101562 9.601562 28 9.800781 L 25.101562 15.898438 Z M 42.800781 7.601562 L 29.398438 7.601562 C 29.101562 7.601562 28.800781 7.800781 28.699219 8.101562 L 28.199219 9.101562 L 38.101562 9.101562 L 37.101562 11.199219 L 33.199219 11.199219 C 33 11.199219 32.800781 11.398438 32.699219 11.601562 L 32.300781 12.398438 C 32.300781 12.601562 32.300781 12.800781 32.5 12.800781 L 36.398438 12.800781 L 34.898438 15.898438 C 34.800781 16.199219 34.898438 16.398438 35.199219 16.398438 L 38.699219 16.398438 C 39 16.398438 39.300781 16.199219 39.398438 15.898438 L 43.101562 8.101562 C 43.199219 7.800781 43.101562 7.601562 42.800781 7.601562 "/>
<path style=" stroke:none;fill-rule:evenodd;fill:rgb(100%,100%,100%);fill-opacity:1;" d="M 49.898438 11.300781 L 53.199219 11.300781 C 53.398438 11.300781 53.601562 11.101562 53.699219 10.898438 L 54.398438 9.5 C 54.398438 9.300781 54.398438 9.101562 54.199219 9.101562 L 44.398438 9.101562 L 44.898438 8.101562 C 45 7.800781 45.398438 7.601562 45.601562 7.601562 L 58.800781 7.601562 C 59.199219 7.601562 59.300781 7.898438 59.101562 8.199219 L 57.601562 11.398438 C 57.199219 12.101562 56.699219 12.300781 55.5 12.300781 L 54.5 12.300781 C 54 12.300781 54.101562 12.5 54.398438 12.898438 L 56.601562 15.699219 C 56.898438 16 56.601562 16.300781 56.398438 16.300781 L 52.699219 16.300781 C 52.398438 16.300781 51.898438 16.300781 51.601562 15.898438 L 49.199219 12.601562 C 49 12.300781 49.101562 12.300781 49.199219 12.101562 L 49.5 11.5 C 49.5 11.300781 49.601562 11.199219 49.898438 11.199219 "/>
<path style=" stroke:none;fill-rule:evenodd;fill:rgb(100%,100%,100%);fill-opacity:1;" d="M 12.800781 15.898438 C 12.699219 16.199219 12.800781 16.398438 13.101562 16.398438 L 16.601562 16.398438 C 16.898438 16.398438 17.199219 16.199219 17.300781 15.898438 L 20 10.300781 C 20 10.101562 20 10 19.898438 10 L 17.800781 9.601562 C 17.800781 9.601562 17.601562 9.601562 17.5 9.601562 L 16.101562 9.601562 C 16 9.601562 15.898438 9.601562 15.800781 9.800781 L 12.898438 15.898438 Z M 10.398438 9.101562 L 26 9.101562 C 26.199219 9.101562 26.398438 8.898438 26.5 8.699219 L 26.898438 7.898438 C 26.898438 7.699219 26.898438 7.5 26.699219 7.5 L 11.101562 7.5 C 10.898438 7.5 10.699219 7.699219 10.601562 7.898438 L 10.199219 8.699219 C 10.199219 8.898438 10.199219 9.101562 10.398438 9.101562 "/>
<path style=" stroke:none;fill-rule:evenodd;fill:rgb(100%,100%,100%);fill-opacity:1;" d="M 62.5 14.898438 L 67.601562 14.898438 C 67.699219 14.898438 67.800781 14.898438 67.898438 14.699219 L 70.398438 9.398438 C 70.398438 9.300781 70.398438 9.199219 70.300781 9.199219 L 65.199219 9.199219 C 65.101562 9.199219 65 9.199219 64.898438 9.398438 L 62.398438 14.699219 C 62.398438 14.800781 62.398438 14.898438 62.5 14.898438 M 61.800781 7.601562 C 61.5 7.601562 61.199219 7.800781 61.101562 8.101562 L 57.398438 15.898438 C 57.300781 16.199219 57.398438 16.398438 57.699219 16.398438 L 71.101562 16.398438 C 71.398438 16.398438 71.699219 16.199219 71.800781 15.898438 L 75.5 8.101562 C 75.601562 7.800781 75.5 7.601562 75.199219 7.601562 Z M 61.800781 7.601562 "/>
<path style=" stroke:none;fill-rule:evenodd;fill:rgb(100%,100%,100%);fill-opacity:1;" d="M 41.199219 15.898438 C 41.101562 16.199219 41.199219 16.398438 41.5 16.398438 L 45 16.398438 C 45.300781 16.398438 45.601562 16.199219 45.699219 15.898438 L 48.398438 10.300781 C 48.398438 10.101562 48.398438 10 48.300781 10 L 46.199219 9.601562 C 46.199219 9.601562 46 9.601562 45.898438 9.601562 L 44.5 9.601562 C 44.398438 9.601562 44.300781 9.601562 44.199219 9.800781 L 41.300781 15.898438 Z M 41.199219 15.898438 "/>
</g>
</svg>
