<?xml version="1.0" encoding="UTF-8"?>
<!DOCTYPE svg PUBLIC "-//W3C//DTD SVG 1.1//EN" "http://www.w3.org/Graphics/SVG/1.1/DTD/svg11.dtd">
<!-- Creator: CorelDRAW 2018 (64 Bit) -->
<svg xmlns="http://www.w3.org/2000/svg" xml:space="preserve" width="76px" height="24px" version="1.1" style="shape-rendering:geometricPrecision; text-rendering:geometricPrecision; image-rendering:optimizeQuality; fill-rule:evenodd; clip-rule:evenodd"
viewBox="0 0 11.701 3.695"
 xmlns:xlink="http://www.w3.org/1999/xlink">
 <defs>
  <style type="text/css">
   <![CDATA[
    .fil0 {fill:#004485}
    .fil1 {fill:#F7DF3D}
   ]]>
  </style>
 </defs>
 <g id="Camada_x0020_1">
  <metadata id="CorelCorpID_0Corel-Layer"/>
  <g id="_2074060767728">
   <rect class="fil0" width="11.701" height="3.695"/>
   <g>
    <path class="fil1" d="M0.872 1.827c0.068,-0.194 0.258,-0.382 0.468,-0.414 0.175,-0.024 0.343,-0.031 0.469,0.062 -0.033,0.067 -0.069,0.138 -0.069,0.138 0,0 -0.055,-0.034 -0.088,-0.043 -0.067,-0.029 -0.164,-0.037 -0.226,0.012l-0.026 0.042 -0.144 0.545c-0.002,0.018 -0.004,0.042 0.009,0.057 0.034,0.034 0.09,0.013 0.135,0.019l0.015 -0.015 0.098 -0.363 0.419 0.003 0.005 0.009c-0.041,0.162 -0.076,0.325 -0.122,0.484l-0.009 0.009 -0.658 -0.003c-0.101,0.005 -0.196,-0.036 -0.245,-0.116 -0.003,-0.026 -0.031,-0.04 -0.03,-0.067l-0.006 0c-0.028,-0.111 -0.027,-0.251 0.005,-0.359z"/>
    <path class="fil1" d="M5.821 1.823c0.063,0.121 0.139,0.26 0.195,0.381l-0.007 0.018c-0.167,0.165 -0.333,0.382 -0.558,0.441 -0.021,0.003 -0.028,-0.014 -0.033,-0.03 0.003,-0.114 0.128,-0.17 0.176,-0.267 0.045,-0.082 0.055,-0.18 0.097,-0.265 0.038,-0.089 0.068,-0.181 0.118,-0.265l0.012 -0.013z"/>
    <path class="fil1" d="M5.463 2.712c0.372,-0.128 0.589,-0.561 0.942,-0.75 0.033,-0.016 0.06,-0.046 0.096,-0.051 0.012,0.015 0.028,0.03 0.028,0.051 -0.249,0.143 -0.473,0.371 -0.682,0.582 -0.109,0.1 -0.229,0.17 -0.357,0.222 -0.014,-0.016 -0.019,-0.035 -0.027,-0.054z"/>
    <path class="fil1" d="M5.717 1.358c0.135,-0.085 0.266,-0.158 0.395,-0.222 -0.014,0.065 -0.024,0.144 -0.003,0.213l-0.007 0.012 -0.277 0.159 -0.018 0c-0.035,-0.049 -0.067,-0.099 -0.096,-0.151l0.006 -0.011z"/>
    <path class="fil1" d="M5.846 1.584c0.09,-0.003 0.163,0.015 0.238,0.021l0 0.01c-0.079,0.043 -0.16,0.092 -0.241,0.12 0.001,-0.051 0.011,-0.101 0.003,-0.151z"/>
    <path class="fil1" d="M5.864 1.8c0.092,-0.054 0.185,-0.109 0.283,-0.15 0.026,0.07 0.063,0.13 0.12,0.185 0.057,-0.02 0.068,-0.089 0.118,-0.114l0.09 0.141 -0.004 0.01c-0.137,0.086 -0.278,0.176 -0.404,0.296l-0.012 0c-0.068,-0.121 -0.134,-0.242 -0.191,-0.368z"/>
    <path class="fil1" d="M6.147 1.404l-0.009 0.141c-0.061,0.006 -0.139,0.001 -0.217,-0.006l-0.006 -0.006 0.217 -0.129 0.015 0z"/>
    <path class="fil1" d="M6.683 1.397l0.432 0 0.107 0.322c0,0 0.004,0.005 0.006,0.008 0.1,-0.095 0.272,-0.33 0.272,-0.33l0.229 0 0 0.015 -0.432 0.542c0,0 -0.073,0.269 -0.113,0.406l-0.033 0.009 -0.425 0 -0.005 -0.009 0.1 -0.412 -0.168 -0.536c0,0 0.022,-0.007 0.03,-0.015z"/>
    <path class="fil1" d="M7.813 1.404l0.01 -0.006 0.773 -0.002c0.007,-0.002 0.019,0.008 0.019,0.008l-0.037 0.168 -0.349 -0.001 -0.015 0.027 -0.037 0.186 0.009 0.007 0.21 -0.004 -0.043 0.191 -0.231 0.002c0,0 -0.037,0.139 -0.049,0.211l0.008 0.006c0.106,0 0.214,0.001 0.327,0.001l0.008 0.006c-0.003,0.058 -0.026,0.102 -0.039,0.156l-0.021 0.009 -0.775 0.003 0.232 -0.968z"/>
    <path class="fil1" d="M2.405 1.45c0.184,-0.099 0.441,-0.081 0.597,0.019 0.134,0.115 0.17,0.296 0.128,0.461 -0.053,0.196 -0.221,0.405 -0.429,0.448 -0.193,0.05 -0.424,0.028 -0.55,-0.134 -0.117,-0.141 -0.091,-0.376 -0.008,-0.527 0.052,-0.112 0.155,-0.208 0.262,-0.267zm0.065 0.702c-0.009,0.029 -0.011,0.069 0.012,0.093 0.02,0.012 0.046,0.02 0.071,0.012 0.024,-0.01 0.052,-0.025 0.064,-0.051 0.052,-0.169 0.081,-0.349 0.129,-0.52 0,-0.047 0.048,-0.109 -0.009,-0.136 -0.042,-0.011 -0.087,-0.005 -0.115,0.026 -0.038,0.083 -0.048,0.176 -0.072,0.262 -0.023,0.107 -0.054,0.21 -0.08,0.314z"/>
    <path class="fil1" d="M3.541 1.483c0.181,-0.119 0.432,-0.136 0.615,-0.053 0.143,0.07 0.194,0.223 0.201,0.372 -0.005,0.223 -0.137,0.433 -0.333,0.531l-0.127 0.051c-0.182,0.023 -0.382,0.014 -0.512,-0.122 -0.121,-0.12 -0.131,-0.324 -0.077,-0.478 0.033,-0.122 0.128,-0.228 0.233,-0.301zm0.142 0.741c0.021,0.014 0.049,0.024 0.075,0.016 0.026,-0.01 0.053,-0.033 0.067,-0.058l0.085 -0.355c0.005,-0.019 0.004,-0.044 0.013,-0.056 0.01,-0.074 0.048,-0.136 0.042,-0.212 -0.01,-0.01 -0.02,-0.033 -0.036,-0.035 -0.037,-0.009 -0.074,-0.001 -0.099,0.026 -0.064,0.181 -0.092,0.378 -0.143,0.566 -0.003,0.036 -0.024,0.074 -0.004,0.108z"/>
    <path class="fil1" d="M4.614 1.405l0.025 -0.006 0.641 -0.001c0.103,0.015 0.198,0.114 0.237,0.212 0.068,0.213 -0.017,0.43 -0.153,0.592 -0.103,0.103 -0.226,0.168 -0.374,0.168 -0.231,0 -0.602,-0.001 -0.602,-0.001 0,0 0.183,-0.793 0.226,-0.964zm0.235 0.81c0.03,0.02 0.066,0.003 0.099,0.004 0.03,-0.007 0.042,-0.034 0.058,-0.057 0,0 0.157,-0.554 0.13,-0.593 -0.029,-0.029 -0.071,-0.018 -0.122,-0.018 -0.004,0.01 -0.007,0.02 -0.009,0.03l-0.156 0.634z"/>
    <path class="fil1" d="M6.245 1.039c0.145,-0.123 0.349,-0.081 0.54,-0.085 0.238,0.027 0.503,0.019 0.738,-0.025 0.006,0.073 -0.051,0.137 -0.112,0.174 -0.166,0.089 -0.376,0.058 -0.564,0.047l0 0.012 0.078 0.03c-0.002,0.025 -0.029,0.039 -0.048,0.049 -0.03,0.012 -0.067,0.011 -0.097,0.023 0.009,0.012 0.034,0.003 0.03,0.024 -0.055,0.062 -0.149,0.061 -0.219,0.032l-0.009 0.01c0.002,0.06 -0.001,0.127 -0.035,0.177 -0.024,0.004 -0.037,-0.018 -0.056,-0.026 -0.015,0.037 -0.009,0.09 -0.038,0.122 -0.025,-0.001 -0.045,-0.034 -0.068,-0.042 -0.027,0.06 -0.044,0.125 -0.088,0.177 -0.045,-0.002 -0.068,-0.057 -0.086,-0.093 -0.016,-0.072 -0.022,-0.16 -0.006,-0.236 -0.044,-0.067 -0.077,-0.155 -0.044,-0.241 0.011,-0.049 0.044,-0.096 0.084,-0.129zm0.072 0.26l-0.06 -0.006 0.005 0.011c0.044,0.004 0.036,0.062 0.072,0.073l-0.017 -0.078 0.031 -0.141c0.021,0.011 0.054,0.017 0.077,0.006 0.022,-0.032 0.066,-0.029 0.103,-0.03 0.03,-0.006 0.027,-0.065 0.066,-0.048 0.014,-0.004 0.038,-0.014 0.036,-0.027 -0.04,0.023 -0.086,-0.035 -0.111,0.015 -0.024,0.021 -0.062,0.02 -0.091,0.024 -0.01,0.035 -0.048,0.056 -0.08,0.06l-0.031 0.141z"/>
    <path class="fil1" d="M9.024 1.396l0.382 0 0.015 0.016 0.1 0.957c0,0.005 -0.434,0 -0.434,0l-0.017 -0.151 -0.331 0.002 -0.097 0.149 -0.196 0.001c0,0 0.486,-0.829 0.578,-0.974zm-0.179 0.649l0.201 0 -0.03 -0.291 -0.171 0.291z"/>
    <path class="fil1" d="M9.852 1.407l0.012 -0.009 0.762 0c0.087,0.002 0.149,0.066 0.193,0.136 0.052,0.088 0.043,0.209 -0.005,0.297 -0.038,0.07 -0.107,0.135 -0.175,0.178 0.022,0.111 0.049,0.222 0.075,0.336 0.003,0.015 -0.004,0.025 -0.018,0.024l-0.425 0.002 -0.015 -0.008 -0.077 -0.274c-0.007,-0.012 -0.021,-0.005 -0.031,-0.006l-0.012 0.017 -0.07 0.26 -0.013 0.01 -0.432 0.001c-0.008,-0.02 -0.002,-0.033 0.006,-0.051 0.075,-0.304 0.155,-0.609 0.225,-0.913zm0.338 0.495c0.017,0.015 0.056,0.015 0.079,0.012 0.022,-0.007 0.041,-0.032 0.052,-0.054l0.061 -0.237c0.013,-0.024 0.004,-0.054 -0.012,-0.073 -0.025,-0.014 -0.068,-0.014 -0.093,0l-0.087 0.352z"/>
   </g>
  </g>
 </g>
</svg>
