<?xml version="1.0" encoding="UTF-8"?>
<!DOCTYPE svg PUBLIC "-//W3C//DTD SVG 1.1//EN" "http://www.w3.org/Graphics/SVG/1.1/DTD/svg11.dtd">
<!-- Creator: CorelDRAW 2018 (64 Bit) -->
<svg xmlns="http://www.w3.org/2000/svg" xml:space="preserve" width="76px" height="24px" version="1.1" style="shape-rendering:geometricPrecision; text-rendering:geometricPrecision; image-rendering:optimizeQuality; fill-rule:evenodd; clip-rule:evenodd"
viewBox="0 0 11.701 3.695"
 xmlns:xlink="http://www.w3.org/1999/xlink">
 <defs>
  <style type="text/css">
   <![CDATA[
    .fil0 {fill:#E52023}
    .fil1 {fill:white}
   ]]>
  </style>
 </defs>
 <g id="Camada_x0020_1">
  <metadata id="CorelCorpID_0Corel-Layer"/>
  <g id="_2073839491840">
   <rect class="fil0" width="11.701" height="3.695"/>
   <path id="firestone.cdr" class="fil1" d="M2.878 1.526l-0.013 0 0.007 0.012c0.123,0.029 0.091,0.253 0.091,0.403 0,0.187 -0.012,0.312 0.144,0.348l0.324 -0.15c-0.03,-0.027 -0.084,-0.066 -0.084,-0.12l0 -0.289c0,-0.017 0.021,-0.03 0.036,-0.03 0.053,0 0.136,0.133 0.181,0.163l0.267 -0.141 -0.231 -0.304 -0.259 0.12c-0.001,-0.064 -0.059,-0.15 -0.114,-0.15 -0.033,0 -0.287,0.124 -0.349,0.138zm-1.725 1.016l-0.006 0.012 0.012 0c0.16,0 0.251,-0.009 0.319,-0.102 0.062,-0.086 0.102,-0.171 0.102,-0.319l0.002 -0.024 -0.014 -0.104 0.114 -0.016 0.042 0c0.037,0 0.055,0.017 0.085,0.024l0.108 -0.265c-0.054,-0.014 -0.062,-0.048 -0.157,-0.048 -0.106,0 -0.182,0.074 -0.233,0.078l-0.007 -0.066 0 -0.102c0,-0.02 0.013,-0.063 0.018,-0.083l0.156 0.017 0.096 0c0.239,0 0.349,-0.162 0.367,-0.385 -0.095,0.051 -0.186,0.072 -0.33,0.072l-0.055 0c-0.135,0 -0.257,-0.09 -0.444,-0.09l-0.078 0c-0.128,0 -0.229,0.077 -0.283,0.151 -0.045,0.061 -0.118,0.217 -0.12,0.318 0.075,-0.02 0.184,-0.108 0.306,-0.108l0.109 0c-0.01,0.043 -0.052,0.117 -0.069,0.178 -0.017,0.06 -0.034,0.14 -0.034,0.213l0 0.06c0,0.139 0.066,0.248 0.066,0.372l0 0.024c0,0.092 -0.029,0.144 -0.072,0.193zm3.156 -0.794c0,-0.062 0.072,-0.139 0.114,-0.162l0.152 0.149 -0.24 0.126c-0.011,-0.045 -0.026,-0.058 -0.026,-0.113zm-0.325 0.061l0 0.084c0,0.125 0.075,0.227 0.143,0.29 0.066,0.06 0.206,0.106 0.332,0.106l0.036 0c0.062,0 0.121,-0.011 0.177,-0.021 0.046,-0.009 0.122,-0.039 0.158,-0.039l0.074 -0.216c-0.058,0.005 -0.142,0.06 -0.246,0.06 -0.126,0 -0.146,-0.055 -0.213,-0.076l0.501 -0.255c-0.023,-0.033 -0.335,-0.354 -0.349,-0.354 -0.135,0 -0.308,0.068 -0.398,0.118 -0.101,0.056 -0.215,0.151 -0.215,0.303zm6.233 -0.061c0,-0.057 0.073,-0.14 0.114,-0.162l0.153 0.149 -0.235 0.124c-0.017,-0.031 -0.032,-0.055 -0.032,-0.099l0 -0.012zm-0.324 0.097c0,0.26 0.188,0.444 0.438,0.444l0.085 0c0.109,0 0.2,-0.028 0.283,-0.053 0.066,-0.019 0.048,-0.029 0.071,-0.098 0.012,-0.037 0.027,-0.093 0.042,-0.125 -0.078,0.018 -0.142,0.06 -0.246,0.06 -0.064,0 -0.193,-0.04 -0.203,-0.082l0.491 -0.249c-0.023,-0.035 -0.331,-0.354 -0.348,-0.354l-0.012 0c-0.136,0 -0.309,0.078 -0.401,0.128 -0.115,0.063 -0.2,0.153 -0.2,0.329zm-1.401 -0.307c0.118,0.056 0.084,0.231 0.084,0.403 0,0.07 -0.007,0.178 0.012,0.228 0.017,0.044 0.081,0.12 0.127,0.12 0.008,0 0.298,-0.135 0.33,-0.15 -0.025,-0.035 -0.084,-0.055 -0.084,-0.126l0 -0.319c0.05,-0.011 0.085,-0.036 0.15,-0.036l0.012 0c0.108,0 0.073,0.235 0.073,0.343 0,0.195 -0.001,0.218 0.134,0.292l0.316 -0.154c-0.025,-0.034 -0.077,-0.049 -0.084,-0.108 -0.005,-0.052 0,-0.143 0,-0.198 0,-0.134 0.011,-0.272 -0.043,-0.354 -0.027,-0.041 -0.064,-0.059 -0.111,-0.081 -0.036,-0.018 -0.107,0.014 -0.15,0.028 -0.059,0.02 -0.254,0.09 -0.303,0.094 -0.004,-0.052 -0.034,-0.086 -0.068,-0.112 -0.048,-0.034 -0.083,-0.006 -0.132,0.014 -0.069,0.028 -0.198,0.089 -0.263,0.104l-0.012 0.012 0.012 0zm-0.877 0.198c0,-0.048 0.041,-0.144 0.078,-0.144l0.006 0c0.106,0 0.21,0.191 0.21,0.319 0,0.056 -0.049,0.168 -0.084,0.168 -0.032,0 -0.12,-0.083 -0.139,-0.107 -0.025,-0.031 -0.071,-0.118 -0.071,-0.169l0 -0.067zm-0.391 0.067l0 0.084c0,0.141 0.102,0.247 0.192,0.3 0.072,0.042 0.274,0.108 0.385,0.108l0.012 0c0.055,0 0.267,-0.126 0.302,-0.16 0.066,-0.066 0.161,-0.177 0.161,-0.302l0 -0.061c0,-0.12 -0.112,-0.225 -0.194,-0.268 -0.068,-0.035 -0.256,-0.115 -0.347,-0.115 -0.074,-0.001 -0.278,0.095 -0.333,0.129 -0.082,0.049 -0.178,0.16 -0.178,0.285zm-0.951 -0.165l0.2 0.002 0 0.433c0,0.057 0.008,0.106 0.032,0.142 0.014,0.02 0.084,0.074 0.106,0.074 0.028,0 0.273,-0.136 0.331,-0.15 -0.034,-0.046 -0.091,-0.053 -0.091,-0.15l0 -0.349 0.223 0 0 -0.198 -0.229 0 0.001 -0.18 -0.573 0.376zm-4.14 -0.1c0.127,0.011 0.096,0.255 0.096,0.397 0,0.077 -0.007,0.177 0.011,0.235 0.014,0.043 0.087,0.119 0.127,0.119 0.03,0 0.274,-0.137 0.331,-0.15 -0.031,-0.042 -0.089,-0.055 -0.09,-0.144 -0.001,-0.08 0,-0.161 0,-0.241 0,-0.056 0.007,-0.191 -0.001,-0.239 -0.009,-0.051 -0.058,-0.127 -0.113,-0.127 -0.02,0 -0.354,0.141 -0.361,0.15zm3.041 0.156l0 0.024c0,0.088 0.481,0.296 0.481,0.373 0,0.016 -0.023,0.048 -0.036,0.048 -0.022,0 -0.31,-0.15 -0.332,-0.17l-0.101 0.092c0.084,0.019 0.428,0.246 0.475,0.246 0.012,0 0.215,-0.141 0.243,-0.159 0.048,-0.033 0.22,-0.13 0.22,-0.189l0 -0.006c0,-0.068 -0.469,-0.284 -0.469,-0.331l0 -0.024c0,-0.013 0.024,-0.036 0.03,-0.036 0.024,0 0.248,0.12 0.283,0.139l0.114 -0.091c-0.038,-0.02 -0.425,-0.222 -0.427,-0.222 -0.011,0 -0.221,0.127 -0.247,0.143 -0.042,0.026 -0.234,0.12 -0.234,0.163z"/>
  </g>
 </g>
</svg>
