<?xml version="1.0" encoding="UTF-8"?>
<!DOCTYPE svg PUBLIC "-//W3C//DTD SVG 1.1//EN" "http://www.w3.org/Graphics/SVG/1.1/DTD/svg11.dtd">
<!-- Creator: CorelDRAW 2018 (64 Bit) -->
<svg xmlns="http://www.w3.org/2000/svg" xml:space="preserve" width="76px" height="24px" version="1.1" style="shape-rendering:geometricPrecision; text-rendering:geometricPrecision; image-rendering:optimizeQuality; fill-rule:evenodd; clip-rule:evenodd"
viewBox="0 0 11.701 3.695"
 xmlns:xlink="http://www.w3.org/1999/xlink">
 <defs>
  <style type="text/css">
   <![CDATA[
    .fil0 {fill:#4D4D4D}
    .fil2 {fill:#FF6600;fill-rule:nonzero}
    .fil1 {fill:white;fill-rule:nonzero}
   ]]>
  </style>
 </defs>
 <g id="Camada_x0020_1">
  <metadata id="CorelCorpID_0Corel-Layer"/>
  <g id="_2073845718096">
   <rect class="fil0" width="11.701" height="3.695"/>
   <g>
    <path class="fil1" d="M3.826 1.421c-0.003,0.01 -0.101,0.332 -0.101,0.332l-0.316 0 0.102 -0.332 -0.361 0c0,0 -0.272,0.891 -0.277,0.908 0.017,0 0.351,0 0.36,0 0.003,-0.009 0.117,-0.381 0.117,-0.381l0.315 0c0,0 -0.111,0.364 -0.117,0.381 0.018,0 0.352,0 0.361,0 0.003,-0.009 0.273,-0.891 0.278,-0.908 -0.017,0 -0.351,0 -0.361,0z"/>
    <path class="fil1" d="M5.723 1.52l-0.017 0.012 0.034 -0.111 -0.36 0c0,0 -0.273,0.891 -0.278,0.908 0.017,0 0.351,0 0.361,0 0.002,-0.01 0.167,-0.548 0.167,-0.548 0.024,-0.076 0.083,-0.128 0.149,-0.128l0.092 0c0.029,0 0.052,0.01 0.066,0.029 0.01,0.014 0.015,0.032 0.015,0.053 0,0.015 -0.002,0.032 -0.008,0.05 0,0 -0.145,0.475 -0.166,0.544 0.017,0 0.351,0 0.36,0 0.003,-0.01 0.196,-0.64 0.196,-0.64 0.006,-0.018 0.014,-0.051 0.014,-0.087 0,-0.038 -0.008,-0.08 -0.036,-0.117 -0.04,-0.055 -0.111,-0.082 -0.211,-0.082 -0.193,0 -0.32,0.073 -0.378,0.117z"/>
    <path class="fil1" d="M4.58 1.933c0.028,0 0.122,0.002 0.18,0.029l0.005 0.003 -0.04 0.132 -0.003 0.001c-0.057,0.027 -0.138,0.045 -0.202,0.045 -0.06,0 -0.103,-0.014 -0.123,-0.041 -0.008,-0.011 -0.012,-0.024 -0.012,-0.038 0,-0.009 0.002,-0.018 0.004,-0.028 0.02,-0.064 0.092,-0.103 0.191,-0.103zm-0.285 -0.446c0.003,0.011 0.052,0.179 0.055,0.192 0.032,-0.013 0.168,-0.066 0.284,-0.066 0.112,0 0.175,0.015 0.199,0.048 0.012,0.016 0.014,0.037 0.006,0.063l-0.023 0.074 -0.006 -0.002c-0.152,-0.05 -0.267,-0.049 -0.269,-0.049 -0.12,0 -0.229,0.03 -0.313,0.087 -0.081,0.055 -0.139,0.132 -0.167,0.224 -0.025,0.082 -0.019,0.152 0.018,0.201 0.042,0.058 0.127,0.088 0.244,0.088 0.11,0 0.23,-0.028 0.338,-0.08l0.014 -0.007c0,0 -0.017,0.056 -0.021,0.069 0.017,0 0.351,0 0.361,0 0.002,-0.01 0.192,-0.627 0.192,-0.627 0.008,-0.026 0.012,-0.051 0.012,-0.075 0,-0.039 -0.012,-0.075 -0.034,-0.104 -0.058,-0.079 -0.191,-0.12 -0.387,-0.12 -0.238,0 -0.464,0.071 -0.503,0.084z"/>
    <path class="fil1" d="M7.129 1.417c-0.004,0.003 -0.346,0.272 -0.346,0.272l0.084 -0.272 -0.36 0c0,0 -0.277,0.904 -0.282,0.921 0.017,0 0.351,0 0.36,0 0.003,-0.009 0.114,-0.374 0.114,-0.374 0,0 0.259,0.368 0.263,0.374 0.007,0 0.361,0 0.385,0 -0.014,-0.02 -0.33,-0.472 -0.33,-0.472 0,0 0.517,-0.427 0.545,-0.449 -0.035,0 -0.429,0 -0.433,0z"/>
    <path class="fil1" d="M7.631 2.079c-0.031,-0.042 -0.032,-0.11 -0.003,-0.206l0 0c0.036,-0.116 0.117,-0.255 0.302,-0.255 0.071,0 0.119,0.017 0.145,0.053 0.032,0.043 0.033,0.11 0.003,0.206 -0.035,0.117 -0.117,0.256 -0.301,0.256 -0.071,0 -0.119,-0.018 -0.146,-0.054zm-0.352 -0.202l0 0c-0.04,0.128 -0.025,0.248 0.042,0.338 0.074,0.101 0.209,0.157 0.378,0.157 0.399,0 0.624,-0.154 0.729,-0.499 0.039,-0.128 0.024,-0.248 -0.042,-0.337 -0.075,-0.102 -0.209,-0.157 -0.379,-0.157 -0.366,0 -0.631,0.181 -0.728,0.498z"/>
    <path class="fil1" d="M9.133 1.618c0.07,0 0.118,0.017 0.145,0.053 0.031,0.043 0.032,0.11 0.003,0.206 -0.036,0.117 -0.117,0.256 -0.302,0.256 -0.071,0 -0.118,-0.018 -0.145,-0.054 -0.032,-0.042 -0.033,-0.11 -0.003,-0.206l0 0c0.035,-0.116 0.117,-0.255 0.302,-0.255zm-0.652 0.259l0 0c-0.039,0.128 -0.024,0.248 0.042,0.338 0.075,0.101 0.209,0.157 0.379,0.157 0.398,0 0.623,-0.154 0.729,-0.499 0.039,-0.128 0.024,-0.248 -0.042,-0.337 -0.075,-0.102 -0.21,-0.157 -0.379,-0.157 -0.367,0 -0.632,0.181 -0.729,0.498z"/>
    <path class="fil1" d="M10.445 1.409c-0.004,0.003 -0.351,0.296 -0.351,0.296l0.09 -0.296 -0.36 0c0,0 -0.282,0.919 -0.287,0.936 0.017,0 0.351,0 0.361,0 0.002,-0.01 0.116,-0.381 0.116,-0.381 0,0 0.279,0.375 0.283,0.381 0.006,0 0.37,0 0.395,0 -0.015,-0.021 -0.354,-0.476 -0.354,-0.476 0,0 0.489,-0.438 0.516,-0.46 -0.034,0 -0.405,0 -0.409,0z"/>
    <path class="fil2" d="M2.98 1.266l-0.005 -0.044 -0.305 0c0.035,0.361 -0.214,0.763 -0.569,0.859l0 0c0,0 0,0 0,0 -0.002,0.001 -0.007,0.001 -0.007,-0.004 0,-0.002 0,-0.004 0.002,-0.005l-0.001 0c0.296,-0.197 0.452,-0.515 0.425,-0.85l-0.299 0c0.013,0.294 -0.184,0.562 -0.486,0.671 -0.002,0 -0.007,0 -0.007,-0.005 0,-0.002 0.001,-0.004 0.002,-0.004l0 -0.001c0.218,-0.149 0.349,-0.371 0.342,-0.661l-0.3 0c-0.003,0.347 -0.315,0.589 -0.925,0.589 0.009,0.005 0.017,0.01 0.025,0.015 0.398,0.217 0.605,0.35 0.898,0.589 0.045,0.039 0.108,0.06 0.171,0.058 0.792,-0.055 1.077,-0.749 1.039,-1.207z"/>
   </g>
  </g>
 </g>
</svg>
