<?xml version="1.0" encoding="UTF-8"?>
<svg xmlns="http://www.w3.org/2000/svg" xmlns:xlink="http://www.w3.org/1999/xlink" width="76px" height="24px" viewBox="0 0 76 24" version="1.1">
<g id="surface1">
<rect x="0" y="0" width="76" height="24" style="fill:rgb(96.862745%,96.862745%,96.862745%);fill-opacity:1;stroke:none;"/>
<path style=" stroke:none;fill-rule:nonzero;fill:rgb(30.588235%,0%,55.686275%);fill-opacity:1;" d="M 19.5 10.800781 L 21.300781 2.101562 L 28.300781 2.101562 C 29.101562 2.101562 29.898438 2.5 30.5 3.101562 C 31 3.800781 31.199219 4.601562 31.101562 5.398438 C 30.699219 7.300781 29.101562 8.601562 27.199219 8.601562 L 22.800781 8.601562 L 22.398438 10.699219 L 19.601562 10.699219 Z M 27 6.300781 C 27.601562 6.300781 28.199219 5.898438 28.300781 5.199219 C 28.300781 4.898438 28.300781 4.699219 28.101562 4.5 C 28 4.300781 27.699219 4.199219 27.5 4.199219 L 23.601562 4.199219 L 23.199219 6.199219 L 27 6.199219 Z M 27 6.300781 "/>
<path style=" stroke:none;fill-rule:nonzero;fill:rgb(30.588235%,0%,55.686275%);fill-opacity:1;" d="M 8 10.800781 L 8.5 8.699219 L 15.898438 8.699219 C 16 8.699219 16.101562 8.699219 16.199219 8.5 C 16.199219 8.398438 16.199219 8.199219 16 8.199219 L 10.898438 6.800781 C 9.699219 6.5 9 5.300781 9.199219 4 C 9.398438 2.898438 10.398438 2.101562 11.5 2.101562 L 19.398438 2.101562 L 18.898438 4.199219 L 12.101562 4.199219 C 12 4.199219 11.898438 4.199219 11.800781 4.398438 C 11.800781 4.5 11.800781 4.699219 12 4.699219 L 17.101562 6.101562 C 18.300781 6.398438 19 7.601562 18.800781 8.800781 C 18.601562 9.898438 17.601562 10.699219 16.5 10.699219 L 8 10.699219 Z M 8 10.800781 "/>
<path style=" stroke:none;fill-rule:nonzero;fill:rgb(30.588235%,0%,55.686275%);fill-opacity:1;" d="M 33.5 10.800781 C 32.898438 10.800781 32.398438 10.5 32 10.101562 C 31.601562 9.699219 31.5 9.101562 31.601562 8.5 L 33 2.101562 L 42.601562 2.101562 L 42.101562 4.199219 L 35.300781 4.199219 L 35 5.398438 L 41.398438 5.398438 L 41 7.300781 L 34.601562 7.300781 L 34.300781 8.601562 L 41.199219 8.601562 L 40.699219 10.699219 L 33.300781 10.699219 Z M 33.5 10.800781 "/>
<path style=" stroke:none;fill-rule:nonzero;fill:rgb(30.588235%,0%,55.686275%);fill-opacity:1;" d="M 44.800781 10.800781 C 44.199219 10.800781 43.699219 10.5 43.300781 10.101562 C 42.898438 9.699219 42.800781 9.101562 42.898438 8.5 L 44.300781 2.101562 L 53.898438 2.101562 L 53.398438 4.199219 L 46.601562 4.199219 L 46.300781 5.398438 L 52.699219 5.398438 L 52.300781 7.300781 L 45.898438 7.300781 L 45.601562 8.601562 L 52.5 8.601562 L 52 10.699219 L 44.601562 10.699219 Z M 44.800781 10.800781 "/>
<path style=" stroke:none;fill-rule:nonzero;fill:rgb(30.588235%,0%,55.686275%);fill-opacity:1;" d="M 53.800781 10.800781 L 55.601562 2.101562 L 61.699219 2.101562 C 62.898438 2.101562 64 2.601562 64.699219 3.5 C 65.398438 4.398438 65.699219 5.601562 65.5 6.699219 C 65 9 62.898438 10.699219 60.601562 10.699219 L 53.800781 10.699219 Z M 60.398438 8.601562 C 61.5 8.601562 62.5 7.800781 62.800781 6.699219 L 62.800781 6.398438 C 63 5.898438 62.800781 5.300781 62.5 4.898438 C 62.199219 4.5 61.601562 4.199219 61.101562 4.199219 L 58.101562 4.199219 L 57.199219 8.601562 L 60.601562 8.601562 Z M 60.398438 8.601562 "/>
<path style=" stroke:none;fill-rule:nonzero;fill:rgb(30.588235%,0%,55.686275%);fill-opacity:1;" d="M 28.898438 21.898438 L 30.300781 15.699219 L 25.5 21.898438 L 24.601562 21.898438 C 23.800781 21.898438 23.101562 21.398438 22.800781 20.699219 L 21.101562 15.800781 L 19.800781 22 L 17.101562 22 L 18.601562 14.800781 C 18.800781 13.898438 19.601562 13.300781 20.398438 13.300781 L 23.101562 13.300781 L 25 18.601562 L 28.601562 14 C 29 13.5 29.5 13.300781 30.101562 13.300781 L 33.398438 13.300781 L 31.601562 22 L 28.898438 22 Z M 28.898438 21.898438 "/>
<path style=" stroke:none;fill-rule:nonzero;fill:rgb(30.588235%,0%,55.686275%);fill-opacity:1;" d="M 45.5 13.199219 L 49 17.300781 L 44.800781 20.601562 L 42.300781 13.199219 L 39.601562 13.199219 C 39 13.199219 38.5 13.5 38.101562 13.898438 L 31.898438 21.800781 L 35.199219 21.800781 L 36.398438 20.101562 L 41.398438 20.101562 L 42 21.800781 L 47 21.800781 L 50.5 19.101562 L 52.800781 21.800781 L 56.699219 21.800781 L 49.199219 13.101562 L 45.300781 13.101562 Z M 38 18.300781 L 40.101562 15.5 L 41 18.300781 Z M 38 18.300781 "/>
<path style=" stroke:none;fill-rule:nonzero;fill:rgb(30.588235%,0%,55.686275%);fill-opacity:1;" d="M 58.300781 13.199219 L 55 13.199219 C 54.601562 13.199219 54.199219 13.300781 53.800781 13.601562 L 52.398438 14.699219 L 54 16.601562 L 58.300781 13.300781 Z M 58.300781 13.199219 "/>
<path style=" stroke:none;fill-rule:nonzero;fill:rgb(100%,40%,20%);fill-opacity:1;" d="M 57.898438 21.101562 L 68 13.199219 L 65.800781 13.199219 C 65.398438 13.199219 65 13.300781 64.601562 13.601562 L 56.699219 19.699219 L 57.898438 21 Z M 57.898438 21.101562 "/>
<path style=" stroke:none;fill-rule:nonzero;fill:rgb(100%,40%,20%);fill-opacity:1;" d="M 59.699219 13.601562 L 54.699219 17.5 L 55.898438 18.800781 L 63.101562 13.199219 L 60.898438 13.199219 C 60.5 13.199219 60.101562 13.300781 59.699219 13.601562 "/>
</g>
</svg>
