<?xml version="1.0" encoding="UTF-8"?>
<!DOCTYPE svg PUBLIC "-//W3C//DTD SVG 1.1//EN" "http://www.w3.org/Graphics/SVG/1.1/DTD/svg11.dtd">
<!-- Creator: CorelDRAW 2018 (64 Bit) -->
<svg xmlns="http://www.w3.org/2000/svg" xml:space="preserve" width="76px" height="24px" version="1.1" style="shape-rendering:geometricPrecision; text-rendering:geometricPrecision; image-rendering:optimizeQuality; fill-rule:evenodd; clip-rule:evenodd"
viewBox="0 0 11.701 3.695"
 xmlns:xlink="http://www.w3.org/1999/xlink">
 <defs>
  <style type="text/css">
   <![CDATA[
    .fil0 {fill:#E6E6E6}
    .fil1 {fill:black;fill-rule:nonzero}
    .fil2 {fill:red;fill-rule:nonzero}
   ]]>
  </style>
 </defs>
 <g id="Camada_x0020_1">
  <metadata id="CorelCorpID_0Corel-Layer"/>
  <g id="_2074026424480">
   <rect class="fil0" width="11.701" height="3.695"/>
   <g>
    <path class="fil1" d="M5.24 1.924l-0.098 0.36c-0.02,0.002 -0.046,0.005 -0.086,0.005 -0.193,0 -0.172,-0.058 -0.09,-0.372 0.084,-0.326 0.133,-0.386 0.253,-0.386 0.116,0 0.117,0.078 0.088,0.177l0.293 0c0.048,-0.184 0.016,-0.348 -0.327,-0.348 -0.382,0 -0.486,0.081 -0.609,0.557 -0.115,0.444 -0.077,0.561 0.336,0.561 0.196,0 0.278,-0.014 0.397,-0.036l0.138 -0.518 -0.295 0z"/>
    <path class="fil1" d="M5.94 2.279c-0.038,0 -0.051,-0.011 -0.044,-0.042l0.067 -0.261 0.392 0 0.045 -0.171 -0.393 0 0.044 -0.174c0.012,-0.045 0.044,-0.084 0.108,-0.084l0.314 0 0.044 -0.171 -0.457 0c-0.189,0 -0.246,0.034 -0.32,0.319l-0.135 0.521c-0.042,0.175 0.01,0.251 0.153,0.251l0.394 0c0.078,0 0.128,-0.041 0.152,-0.104l0.032 -0.084 -0.396 0z"/>
    <path class="fil1" d="M10.431 2.279c-0.038,0 -0.051,-0.011 -0.044,-0.042l0.067 -0.261 0.392 0 0.045 -0.171 -0.393 0 0.045 -0.174c0.011,-0.045 0.044,-0.084 0.107,-0.084l0.314 0 0.044 -0.171 -0.456 0c-0.19,0 -0.247,0.034 -0.321,0.319l-0.135 0.521c-0.042,0.175 0.01,0.251 0.153,0.251l0.394 0c0.078,0 0.128,-0.041 0.152,-0.104l0.032 -0.084 -0.396 0z"/>
    <path class="fil1" d="M3.965 2.281l-0.081 0 0.19 -0.734c0.025,0 0.034,-0.001 0.094,-0.001 0.171,0 0.17,0.056 0.089,0.371 -0.082,0.318 -0.13,0.364 -0.292,0.364zm0.252 -0.905l-0.393 0 -0.274 1.059c-0.005,0.018 0.006,0.032 0.024,0.032l0.35 0c0.439,0 0.514,-0.084 0.634,-0.55 0.105,-0.405 0.04,-0.541 -0.341,-0.541z"/>
    <path class="fil1" d="M9.715 1.374c-0.227,0 -0.332,0.005 -0.394,0.002l-0.273 1.059c-0.005,0.018 0.005,0.032 0.023,0.032l0.263 0 0.238 -0.92c0.024,0 0.061,-0.002 0.098,-0.002 0.128,0 0.144,0.045 0.111,0.176l-0.185 0.714c-0.005,0.018 0.006,0.032 0.024,0.032l0.262 0 0.193 -0.746c0.067,-0.259 -0.046,-0.347 -0.36,-0.347z"/>
    <path class="fil1" d="M7.44 1.376l-0.045 0.177 0.292 0c0.003,0 0.003,0.004 0,0.006 -0.047,0.035 -0.075,0.085 -0.089,0.137l-0.191 0.739c-0.005,0.018 0.006,0.032 0.024,0.032l0.282 0 0.237 -0.914 0.144 0c0.081,0 0.13,-0.034 0.158,-0.105l0.027 -0.072 -0.839 0z"/>
    <path class="fil1" d="M3.352 2.467l0.274 -1.058c0.004,-0.019 -0.006,-0.033 -0.024,-0.033l-0.278 0 -0.274 1.059c-0.004,0.018 0.006,0.032 0.024,0.032l0.278 0z"/>
    <path class="fil1" d="M8.488 2.299c-0.126,0 -0.145,-0.046 -0.057,-0.386 0.073,-0.283 0.143,-0.382 0.256,-0.382 0.126,0 0.14,0.068 0.058,0.382 -0.08,0.311 -0.16,0.386 -0.257,0.386zm0.243 -0.938c-0.331,0 -0.474,0.059 -0.604,0.561 -0.113,0.435 -0.022,0.56 0.314,0.56 0.342,0 0.477,-0.07 0.603,-0.56 0.092,-0.355 0.074,-0.561 -0.313,-0.561z"/>
    <path class="fil2" d="M0.865 1.93l0.171 -0.6c0.016,-0.062 0.084,-0.118 0.153,-0.118l0.523 0c0.009,0 0.012,0.012 0.005,0.016 -0.272,0.186 -0.6,0.462 -0.838,0.709 -0.006,0.007 -0.017,0.002 -0.014,-0.007z"/>
    <path class="fil1" d="M1.278 2.29l0.169 -0.592c0.002,-0.009 -0.007,-0.016 -0.014,-0.009 -0.249,0.214 -0.55,0.527 -0.738,0.763 -0.004,0.006 -0.002,0.015 0.006,0.015l0.733 0c0.308,0 0.477,-0.095 0.539,-0.324 0.05,-0.186 -0.048,-0.313 -0.204,-0.346 -0.003,-0.001 -0.005,-0.006 0,-0.007 0.132,-0.022 0.265,-0.075 0.312,-0.268 0.052,-0.208 -0.107,-0.322 -0.29,-0.31l-0.28 0.98c-0.015,0.053 -0.072,0.098 -0.126,0.098l-0.107 0z"/>
    <path class="fil1" d="M2.869 2.03c-0.01,-0.033 -0.02,-0.057 -0.036,-0.076 -0.002,-0.003 -0.002,-0.006 0.001,-0.007 0.126,-0.039 0.208,-0.118 0.243,-0.252 0.046,-0.178 -0.066,-0.319 -0.349,-0.319l-0.42 0 -0.274 1.059c-0.005,0.018 0.006,0.032 0.024,0.032l0.262 0 0.238 -0.92c0.025,0 0.05,-0.001 0.11,-0.001 0.101,0 0.139,0.063 0.117,0.147 -0.029,0.111 -0.115,0.173 -0.217,0.173l-0.039 0 0.11 0.529c0.013,0.051 0.038,0.072 0.098,0.072l0.234 0 -0.102 -0.437z"/>
    <path class="fil1" d="M6.443 2.097c-0.111,0.266 0.034,0.387 0.329,0.387 0.27,0 0.419,-0.064 0.483,-0.312 0.022,-0.085 0.008,-0.176 -0.044,-0.233 -0.101,-0.109 -0.295,-0.13 -0.363,-0.193 -0.034,-0.033 -0.034,-0.078 -0.024,-0.117 0.018,-0.071 0.066,-0.11 0.144,-0.11 0.122,0 0.125,0.075 0.095,0.164l0.262 0c0.061,-0.186 -0.019,-0.332 -0.327,-0.332 -0.259,0 -0.399,0.102 -0.449,0.297 -0.014,0.053 -0.009,0.14 0.023,0.195 0.071,0.122 0.259,0.137 0.364,0.21 0.045,0.031 0.046,0.074 0.034,0.12 -0.023,0.091 -0.069,0.135 -0.16,0.135 -0.087,0 -0.14,-0.051 -0.09,-0.211l-0.277 0z"/>
   </g>
  </g>
 </g>
</svg>
