<?xml version="1.0" encoding="UTF-8"?>
<!DOCTYPE svg PUBLIC "-//W3C//DTD SVG 1.1//EN" "http://www.w3.org/Graphics/SVG/1.1/DTD/svg11.dtd">
<!-- Creator: CorelDRAW 2018 (64 Bit) -->
<svg xmlns="http://www.w3.org/2000/svg" xml:space="preserve" width="76px" height="24px" version="1.1" style="shape-rendering:geometricPrecision; text-rendering:geometricPrecision; image-rendering:optimizeQuality; fill-rule:evenodd; clip-rule:evenodd"
viewBox="0 0 11.701 3.695"
 xmlns:xlink="http://www.w3.org/1999/xlink">
 <defs>
  <style type="text/css">
   <![CDATA[
    .fil1 {fill:black}
    .fil0 {fill:#FF8E01}
   ]]>
  </style>
 </defs>
 <g id="Camada_x0020_1">
  <metadata id="CorelCorpID_0Corel-Layer"/>
  <g id="_2072055135008">
   <rect class="fil0" width="11.701" height="3.695"/>
   <g>
    <path class="fil1" d="M10.577 1.757c-0.008,-0.032 -0.021,-0.068 -0.03,-0.086 0,0 0.005,-0.006 0.016,0.001 0.011,0.007 0.082,0.056 0.082,0.056 0.036,0.052 0.058,0.269 0.06,0.346 -0.034,-0.015 -0.081,-0.041 -0.111,-0.071l-0.017 -0.246zm-0.213 -0.201c-0.058,-0.064 -0.107,-0.123 -0.154,-0.194 0.03,-0.058 0.053,-0.212 0.039,-0.272 -0.006,-0.018 -0.056,-0.084 -0.064,-0.094 -0.012,-0.012 -0.053,-0.058 -0.072,-0.058 -0.004,0 -0.008,0.001 -0.01,0.003l0.006 0.051c-0.054,0.035 -0.125,0.082 -0.189,0.129 0,0.018 0.002,0.045 0.003,0.055 0.01,0.008 0.021,0.015 0.033,0.02 0.025,-0.005 0.103,-0.024 0.124,-0.021l-0.077 0.115 -0.087 0.062 -0.109 -0.035c-0.007,-0.001 -0.014,0 -0.018,0.006l-0.081 0.087c-0.004,0.005 -0.007,0.009 -0.007,0.018l-0.002 0.099c0,0 -0.002,0.015 -0.002,0.032 0,0.07 0.032,0.104 0.032,0.104l0.053 -0.077c-0.007,-0.011 -0.02,-0.041 -0.022,-0.055 0,-0.003 0.001,-0.085 0.001,-0.085l0.051 -0.037 0.136 0.096c0,0 0.037,0.069 0.074,0.111 0.023,0.029 0.141,0.108 0.198,0.141 0.005,0.03 0.018,0.08 0.027,0.107l0.167 0.17 -0.099 0.123c-0.034,0.022 -0.068,0.063 -0.065,0.1l0.114 0 0.012 -0.065 0.136 -0.151c0.007,-0.008 0.007,-0.013 0.003,-0.025l-0.039 -0.13c0.019,-0.022 0.061,-0.078 0.061,-0.144 0,-0.121 -0.132,-0.151 -0.173,-0.186l0 0zm-0.613 -0.248c-0.004,0.001 -0.105,0.029 -0.105,0.029 0,0 -0.047,0.018 -0.068,0.032 -0.021,0.014 -0.044,0.037 -0.046,0.05l0.09 0.02c0.014,-0.015 0.029,-0.031 0.043,-0.042l0.021 -0.01 0.075 -0.076c0,0 -0.003,-0.005 -0.01,-0.003l0 0zm0.426 0.779l0.127 -0.122 0.053 0.052 -0.137 0.117c-0.011,0.014 -0.02,0.036 -0.027,0.05l-0.101 0c0.006,-0.038 0.058,-0.085 0.085,-0.097l0 0zm0.677 0.257l-1.354 0 0 -0.044 1.354 0 0 0.044z"/>
    <path class="fil1" d="M4.075 2.344l0 -0.087 0.085 0 0 -0.754 -0.085 0 0 -0.084 0.377 0 0 0.838 0.086 0 0 0.087 -0.463 0zm4.439 -0.111l-0.005 0c-0.054,0.077 -0.126,0.128 -0.237,0.128 -0.151,0 -0.245,-0.129 -0.245,-0.283 0,-0.185 0.132,-0.303 0.342,-0.303 0.086,0 0.132,0.019 0.132,0.019l0 -0.058c0,-0.112 -0.069,-0.172 -0.17,-0.172 -0.14,0 -0.212,0.108 -0.212,0.108l-0.052 -0.062c0.093,-0.144 0.236,-0.209 0.369,-0.209 0.225,0 0.358,0.133 0.358,0.335l0 0.521 0.094 0 0 0.087 -0.374 0 0 -0.111zm-0.013 -0.347c-0.008,-0.009 -0.026,-0.02 -0.064,-0.02 -0.087,0 -0.106,0.086 -0.106,0.175 0,0.087 0.026,0.158 0.101,0.158 0.036,0 0.058,-0.015 0.069,-0.028l0 -0.285zm0.782 0.371l0.113 0 0 0.087 -0.406 0 0 -1.183 -0.101 0 0 -0.085 0.394 0 0 1.181zm-5.407 -0.754l0 0.685c0,0.047 0.031,0.058 0.06,0.058 0.028,0 0.054,-0.01 0.054,-0.01l0 0.085c0,0 -0.055,0.034 -0.179,0.034 -0.144,0 -0.228,-0.07 -0.228,-0.22l0 -0.632 -0.099 0 0 -0.062c0.11,-0.087 0.237,-0.187 0.338,-0.272l0.054 0 0 0.25 0.114 0 0 0.084 -0.114 0zm0.253 -0.33c0,0.082 0.074,0.136 0.179,0.136 0.105,0 0.179,-0.054 0.179,-0.136 0,-0.081 -0.074,-0.135 -0.179,-0.135 -0.105,0 -0.179,0.054 -0.179,0.135zm-1.048 0.537c0,-0.083 -0.026,-0.149 -0.099,-0.149 -0.072,0 -0.101,0.066 -0.101,0.149l0 0.547 0.085 0 0 0.087 -0.463 0 0 -0.087 0.086 0 0 -0.754 -0.086 0 0 -0.084 0.364 0 0 0.141 0.005 0c0.034,-0.078 0.115,-0.159 0.244,-0.159 0.135,0 0.219,0.083 0.245,0.192 0.01,0.043 0.012,0.114 0.012,0.15l0 0.514 0.111 0 0 0.087 -0.403 0 0 -0.634zm-1.587 0.172c0,0.279 0.172,0.507 0.466,0.507 0.293,0 0.465,-0.228 0.465,-0.507 0,-0.28 -0.172,-0.508 -0.465,-0.508 -0.294,0 -0.466,0.228 -0.466,0.508zm0.344 -0.003c0,-0.283 0.026,-0.408 0.122,-0.408 0.095,0 0.122,0.125 0.122,0.408 0,0.282 -0.027,0.407 -0.122,0.407 -0.096,0 -0.122,-0.125 -0.122,-0.407zm4.085 -0.047c0,-0.244 0.02,-0.336 0.103,-0.336 0.084,0 0.101,0.089 0.104,0.336l-0.207 0zm0.424 0.266c-0.041,0.048 -0.106,0.086 -0.203,0.086 -0.085,0 -0.215,-0.047 -0.221,-0.262l0.495 0c0.002,-0.017 0.003,-0.05 0.003,-0.067 0,-0.26 -0.107,-0.454 -0.385,-0.454 -0.28,0 -0.423,0.215 -0.423,0.482 0,0.267 0.143,0.478 0.423,0.478 0.18,0 0.293,-0.084 0.36,-0.217l-0.049 -0.046zm-4.268 -1.16c0,0 0.223,0.223 0.326,0.338l0 0.087c-0.096,-0.101 -0.294,-0.186 -0.479,-0.186 -0.417,0 -0.679,0.315 -0.679,0.705 0,0.388 0.248,0.702 0.679,0.702 0.215,0 0.387,-0.101 0.483,-0.205l0 0.083c-0.131,0.179 -0.369,0.295 -0.666,0.295 -0.53,0 -0.896,-0.385 -0.896,-0.875 0,-0.491 0.406,-0.875 0.896,-0.875 0.125,0 0.237,0.021 0.336,0.056l0 -0.125zm5.776 0.565l0 0.685c0,0.047 0.031,0.058 0.06,0.058 0.028,0 0.054,-0.01 0.054,-0.01l0 0.085c0,0 -0.055,0.034 -0.179,0.034 -0.144,0 -0.229,-0.07 -0.229,-0.22l0 -0.632 -0.098 0 0 -0.062c0.11,-0.087 0.237,-0.187 0.338,-0.272l0.054 0 0 0.25 0.142 0 0 0.084 -0.142 0zm-2.665 0.207c0,-0.083 -0.026,-0.149 -0.098,-0.149 -0.072,0 -0.101,0.066 -0.101,0.149l0 0.547 0.084 0 0 0.087 -0.463 0 0 -0.087 0.086 0 0 -0.754 -0.086 0 0 -0.084 0.365 0 0 0.141 0.004 0c0.035,-0.078 0.115,-0.159 0.244,-0.159 0.136,0 0.219,0.083 0.245,0.192 0.01,0.043 0.013,0.114 0.013,0.15l0 0.514 0.111 0 0 0.087 -0.404 0 0 -0.634zm1.87 0c0,-0.083 -0.027,-0.149 -0.099,-0.149 -0.072,0 -0.101,0.066 -0.101,0.149l0 0.547 0.085 0 0 0.087 -0.463 0 0 -0.087 0.086 0 0 -0.754 -0.086 0 0 -0.084 0.364 0 0 0.141 0.005 0c0.034,-0.078 0.115,-0.159 0.243,-0.159 0.136,0 0.219,0.083 0.246,0.192 0.009,0.043 0.012,0.114 0.012,0.15l0 0.514 0.111 0 0 0.087 -0.403 0 0 -0.634z"/>
   </g>
  </g>
 </g>
</svg>
